<?xml version="1.0" encoding="utf-8"?>
<!-- Generator: Adobe Illustrator 26.2.1, SVG Export Plug-In . SVG Version: 6.00 Build 0)  -->
<svg version="1.1" id="Слой_1" xmlns="http://www.w3.org/2000/svg" xmlns:xlink="http://www.w3.org/1999/xlink" x="0px" y="0px"
	 viewBox="0 0 664 384" style="enable-background:new 0 0 664 384;" xml:space="preserve">
<style type="text/css">
	.st0{fill:#FFFFFF;}
</style>
<g>
	<path class="st0" d="M107.9,223.4c-1.5-2-2.8-3.7-4.1-5.3c-17.3-20.9-35-41.5-49.1-64.9c-8.4-13.9-15.7-28.3-18.9-44.3
		c-2.5-12.6,0.3-15.3,12.8-12.4c1.1,0.3,2.2,0.6,3.2,0.9c1.9,29.4,17.2,52.7,34.7,74.5c12.4,15.4,26.3,29.6,39.5,44.3
		c2.1,2.4,4.3,3,7.5,2.5c12.4-1.8,24.8-3.3,37.2-4.7c2.8-0.3,4.4-0.8,4.9-4.2c0.7-5.3,4.7-7.1,9.8-7.3c25.7-0.6,51.3-1.3,76.9-2
		c9.7-0.2,19.3-0.6,29-0.6c3.9,0,6.3-1.2,8.7-4.4c16.7-22.5,48.6-30.2,73-17.9c20.5,10.4,31.3,33,27,56.8c-4.1,22.4-22,39-45.1,41.8
		c-28.3,3.4-54.4-13.8-62.4-41.3c-0.5-1.7-0.9-3.5-2.2-5.2c0.3,3,0.6,5.9,0.9,8.9c0.4,3.9-1,6.1-5.2,6.1c-34,0-68,0-102-0.1
		c-6,0-8.2-3.3-9-12.7c-21.1,3.7-42.2,6.8-63.1,11.1c-20.3,4.2-39.8,11.1-57.5,22.2c-9,5.6-17.1,12.2-23,21.1
		c-8.9,13.4-8.6,28.8,1.3,41.4c13.6,17.3,32.2,26.2,53.6,28.9c28.6,3.6,51.5-7.2,69.1-29.6c8.9-11.4,11.5-24.1,4.2-36.8
		c-6.4-11.2-14.4-21.5-21.8-32.1c-2.4-3.4-5.3-6.3-8.8-10.4c8.3-1.6,15.7-3.1,23.3-1.5c1,0.2,2.1,1.1,2.8,1.9
		c9.6,11.7,18.9,23.8,24.3,38.2c9,23.9,0.9,43.7-15.6,61C117.6,395.9,52,378.2,21.5,345C0,321.6,0.1,291.1,21.4,267.4
		c15.9-17.6,36.5-27.6,58.4-35.3C88.9,229,98.1,226.4,107.9,223.4z"/>
	<path class="st0" d="M630.6,238.3c-13.8,0-27,0-40.1,0c-2.3,0-4.8-0.1-6.8-1c-4.2-1.9-6.2-5.5-5.5-10.2c0.7-4.8,4.1-8.2,9.2-8.3
		c18.5-0.2,37-0.2,55.5,0c6.4,0.1,9.8,5.1,9.3,12.2c-2.7,35.5-35.9,60-70.8,52.4c-24.7-5.4-43.4-26.8-45.4-52.1
		c-2-25.8,12.7-49.4,36.7-59c23.5-9.3,51.1-2,66.8,17.7c0.7,0.9,1.5,1.8,2.1,2.8c3.2,4.9,2.4,10.7-1.9,13.9
		c-4.4,3.3-10.1,2.6-13.7-2.1c-6.5-8.6-14.8-14.2-25.5-16.2c-19.1-3.6-38.9,9.2-43.9,28.5c-5.1,19.5,6.1,39.9,25.7,46.4
		c18.3,6.1,39.8-3.4,47.1-21C629.9,241.4,630.1,240.2,630.6,238.3z"/>
	<path class="st0" d="M0.6,63.6c8.5,1.9,17.1,3.8,25.6,5.6c11.7,2.5,11.6,2.3,17.9-7.7c13.7-21.8,34-35.2,57.6-44.1
		c12.9-4.9,26.2-7.8,40.1-7.2c4,0.2,8,0.7,11.8,1.7c18.6,5.1,26.4,20.3,19.4,38.3c-10.2,26.3-30.2,41.1-57.4,45.7
		c-32.8,5.7-64.5,1.3-93.7-15.5C14.3,75.9,7.3,69.9,0,64.6C0.2,64.3,0.4,63.9,0.6,63.6z M59.3,75.1c27,4.1,53.2,7.7,77.3-8.3
		c9.4-6.2,15.8-15.2,18.9-26.2c1.4-4.9,0-8-4.9-9.2c-4.6-1.2-9.5-1.9-14.3-1.6C113,31.3,92.6,40.4,74.8,55.4
		C68.6,60.7,63.2,66.7,59.3,75.1z"/>
	<path class="st0" d="M500.9,238.4c0-1.8,0-3.6,0-5.4c0-18.8,0-37.7,0-56.5c0-7.6,3.5-11.8,9.8-11.8c6.2,0,9.7,4.3,9.7,11.9
		c0,30.5,0,61,0,91.5c0,5.2-1.4,9.2-6.5,11.2c-4.4,1.7-8.6,0-12.4-5c-16.3-21.7-32.6-43.4-48.9-65.1c-0.9-1.3-1.9-2.5-3.7-4.8
		c-0.2,2.6-0.3,3.9-0.3,5.1c0,18.8,0,37.7,0,56.5c0,7.5-3.6,11.9-9.7,11.9c-6,0-9.6-4.3-9.6-11.5c0-30.2,0-60.3,0-90.5
		c0-5,1.7-8.9,6.5-10.7c4.5-1.7,8.6-0.1,12.1,4.6c16.3,21.7,32.5,43.4,48.8,65.2c1,1.3,2,2.5,3.1,3.8
		C500.1,238.7,500.5,238.6,500.9,238.4z"/>
</g>
</svg>
